<svg id="visual" viewBox="0 0 900 600" width="900" height="600" xmlns="http://www.w3.org/2000/svg" xmlns:xlink="http://www.w3.org/1999/xlink" version="1.1"><g stroke-width="1" stroke-linejoin="bevel"><path d="M420 287L516 300L426 239Z" fill="#277297" stroke="#277297"></path><path d="M516 300L466 182L426 239Z" fill="#00101c" stroke="#00101c"></path><path d="M420 287L477 369L516 300Z" fill="#277297" stroke="#277297"></path><path d="M591 437L620 305L516 300Z" fill="#297ea6" stroke="#297ea6"></path><path d="M516 300L630 209L466 182Z" fill="#297ea6" stroke="#297ea6"></path><path d="M296 307L380 395L420 287Z" fill="#00101c" stroke="#00101c"></path><path d="M420 287L380 395L477 369Z" fill="#246688" stroke="#246688"></path><path d="M620 305L630 209L516 300Z" fill="#112e42" stroke="#112e42"></path><path d="M487 65L379 118L466 182Z" fill="#1d4e6b" stroke="#1d4e6b"></path><path d="M466 182L379 118L426 239Z" fill="#277297" stroke="#277297"></path><path d="M426 239L296 307L420 287Z" fill="#1d4e6b" stroke="#1d4e6b"></path><path d="M264 186L296 307L426 239Z" fill="#15384f" stroke="#15384f"></path><path d="M630 209L612 123L466 182Z" fill="#19435d" stroke="#19435d"></path><path d="M612 123L487 65L466 182Z" fill="#246688" stroke="#246688"></path><path d="M518 480L591 437L477 369Z" fill="#297ea6" stroke="#297ea6"></path><path d="M477 369L591 437L516 300Z" fill="#1d4e6b" stroke="#1d4e6b"></path><path d="M420 503L518 480L477 369Z" fill="#205a7a" stroke="#205a7a"></path><path d="M733 296L684 225L620 305Z" fill="#0c2435" stroke="#0c2435"></path><path d="M620 305L684 225L630 209Z" fill="#277297" stroke="#277297"></path><path d="M630 209L668 119L612 123Z" fill="#00101c" stroke="#00101c"></path><path d="M379 118L264 186L426 239Z" fill="#0c2435" stroke="#0c2435"></path><path d="M169 316L272 401L296 307Z" fill="#081a28" stroke="#081a28"></path><path d="M296 307L272 401L380 395Z" fill="#19435d" stroke="#19435d"></path><path d="M380 395L420 503L477 369Z" fill="#00101c" stroke="#00101c"></path><path d="M334 502L420 503L380 395Z" fill="#15384f" stroke="#15384f"></path><path d="M360 0L311 91L379 118Z" fill="#1d4e6b" stroke="#1d4e6b"></path><path d="M379 118L311 91L264 186Z" fill="#19435d" stroke="#19435d"></path><path d="M684 225L668 119L630 209Z" fill="#277297" stroke="#277297"></path><path d="M584 0L496 0L487 65Z" fill="#19435d" stroke="#19435d"></path><path d="M724 514L692 394L591 437Z" fill="#15384f" stroke="#15384f"></path><path d="M591 437L692 394L620 305Z" fill="#246688" stroke="#246688"></path><path d="M692 394L733 296L620 305Z" fill="#00101c" stroke="#00101c"></path><path d="M684 225L808 137L668 119Z" fill="#19435d" stroke="#19435d"></path><path d="M584 0L487 65L612 123Z" fill="#0c2435" stroke="#0c2435"></path><path d="M487 65L360 0L379 118Z" fill="#246688" stroke="#246688"></path><path d="M272 401L334 502L380 395Z" fill="#246688" stroke="#246688"></path><path d="M485 600L569 525L518 480Z" fill="#081a28" stroke="#081a28"></path><path d="M518 480L569 525L591 437Z" fill="#081a28" stroke="#081a28"></path><path d="M485 600L518 480L420 503Z" fill="#1d4e6b" stroke="#1d4e6b"></path><path d="M496 0L360 0L487 65Z" fill="#205a7a" stroke="#205a7a"></path><path d="M668 119L584 0L612 123Z" fill="#246688" stroke="#246688"></path><path d="M163 99L184 172L264 186Z" fill="#0c2435" stroke="#0c2435"></path><path d="M264 186L169 316L296 307Z" fill="#277297" stroke="#277297"></path><path d="M163 99L264 186L311 91Z" fill="#15384f" stroke="#15384f"></path><path d="M184 172L169 316L264 186Z" fill="#205a7a" stroke="#205a7a"></path><path d="M272 401L200 429L334 502Z" fill="#246688" stroke="#246688"></path><path d="M360 0L321 0L311 91Z" fill="#15384f" stroke="#15384f"></path><path d="M169 316L200 429L272 401Z" fill="#19435d" stroke="#19435d"></path><path d="M412 600L485 600L420 503Z" fill="#277297" stroke="#277297"></path><path d="M412 600L420 503L334 502Z" fill="#081a28" stroke="#081a28"></path><path d="M311 600L412 600L334 502Z" fill="#277297" stroke="#277297"></path><path d="M692 394L803 335L733 296Z" fill="#15384f" stroke="#15384f"></path><path d="M733 296L815 196L684 225Z" fill="#246688" stroke="#246688"></path><path d="M832 416L803 335L692 394Z" fill="#081a28" stroke="#081a28"></path><path d="M724 514L591 437L569 525Z" fill="#15384f" stroke="#15384f"></path><path d="M485 600L578 600L569 525Z" fill="#081a28" stroke="#081a28"></path><path d="M803 335L815 196L733 296Z" fill="#00101c" stroke="#00101c"></path><path d="M668 119L709 0L584 0Z" fill="#19435d" stroke="#19435d"></path><path d="M673 600L724 514L569 525Z" fill="#205a7a" stroke="#205a7a"></path><path d="M226 0L163 99L311 91Z" fill="#1d4e6b" stroke="#1d4e6b"></path><path d="M84 168L117 339L169 316Z" fill="#205a7a" stroke="#205a7a"></path><path d="M808 137L709 0L668 119Z" fill="#081a28" stroke="#081a28"></path><path d="M169 316L117 339L200 429Z" fill="#0c2435" stroke="#0c2435"></path><path d="M84 168L169 316L184 172Z" fill="#081a28" stroke="#081a28"></path><path d="M815 196L808 137L684 225Z" fill="#205a7a" stroke="#205a7a"></path><path d="M321 0L226 0L311 91Z" fill="#277297" stroke="#277297"></path><path d="M186 533L311 600L334 502Z" fill="#0c2435" stroke="#0c2435"></path><path d="M186 533L334 502L200 429Z" fill="#15384f" stroke="#15384f"></path><path d="M578 600L673 600L569 525Z" fill="#297ea6" stroke="#297ea6"></path><path d="M900 483L808 462L827 600Z" fill="#205a7a" stroke="#205a7a"></path><path d="M724 514L808 462L692 394Z" fill="#277297" stroke="#277297"></path><path d="M803 335L900 276L815 196Z" fill="#15384f" stroke="#15384f"></path><path d="M90 490L186 533L200 429Z" fill="#112e42" stroke="#112e42"></path><path d="M808 462L832 416L692 394Z" fill="#112e42" stroke="#112e42"></path><path d="M137 0L105 136L163 99Z" fill="#0c2435" stroke="#0c2435"></path><path d="M163 99L105 136L184 172Z" fill="#246688" stroke="#246688"></path><path d="M0 403L107 421L117 339Z" fill="#205a7a" stroke="#205a7a"></path><path d="M117 339L107 421L200 429Z" fill="#246688" stroke="#246688"></path><path d="M105 136L84 168L184 172Z" fill="#00101c" stroke="#00101c"></path><path d="M808 137L781 0L709 0Z" fill="#205a7a" stroke="#205a7a"></path><path d="M129 600L203 600L186 533Z" fill="#081a28" stroke="#081a28"></path><path d="M186 533L203 600L311 600Z" fill="#00101c" stroke="#00101c"></path><path d="M900 411L900 276L803 335Z" fill="#112e42" stroke="#112e42"></path><path d="M815 196L900 113L808 137Z" fill="#205a7a" stroke="#205a7a"></path><path d="M808 137L900 113L781 0Z" fill="#081a28" stroke="#081a28"></path><path d="M226 0L137 0L163 99Z" fill="#19435d" stroke="#19435d"></path><path d="M0 64L0 185L84 168Z" fill="#112e42" stroke="#112e42"></path><path d="M900 276L900 211L815 196Z" fill="#1d4e6b" stroke="#1d4e6b"></path><path d="M0 480L90 490L107 421Z" fill="#297ea6" stroke="#297ea6"></path><path d="M107 421L90 490L200 429Z" fill="#1d4e6b" stroke="#1d4e6b"></path><path d="M900 483L900 411L832 416Z" fill="#00101c" stroke="#00101c"></path><path d="M832 416L900 411L803 335Z" fill="#19435d" stroke="#19435d"></path><path d="M900 483L832 416L808 462Z" fill="#1d4e6b" stroke="#1d4e6b"></path><path d="M900 211L900 113L815 196Z" fill="#0c2435" stroke="#0c2435"></path><path d="M84 168L0 297L117 339Z" fill="#19435d" stroke="#19435d"></path><path d="M0 185L0 297L84 168Z" fill="#00101c" stroke="#00101c"></path><path d="M90 490L129 600L186 533Z" fill="#00101c" stroke="#00101c"></path><path d="M0 600L129 600L90 490Z" fill="#19435d" stroke="#19435d"></path><path d="M0 64L84 168L105 136Z" fill="#297ea6" stroke="#297ea6"></path><path d="M827 600L808 462L724 514Z" fill="#081a28" stroke="#081a28"></path><path d="M673 600L827 600L724 514Z" fill="#112e42" stroke="#112e42"></path><path d="M0 297L0 403L117 339Z" fill="#19435d" stroke="#19435d"></path><path d="M900 113L900 0L781 0Z" fill="#00101c" stroke="#00101c"></path><path d="M137 0L0 64L105 136Z" fill="#0c2435" stroke="#0c2435"></path><path d="M0 403L0 480L107 421Z" fill="#1d4e6b" stroke="#1d4e6b"></path><path d="M827 600L900 600L900 483Z" fill="#0c2435" stroke="#0c2435"></path><path d="M137 0L0 0L0 64Z" fill="#19435d" stroke="#19435d"></path><path d="M0 480L0 600L90 490Z" fill="#19435d" stroke="#19435d"></path></g></svg>